<svg width="16" height="17" viewBox="0 0 16 17" fill="none" xmlns="http://www.w3.org/2000/svg">
<path d="M5.35632 2.15V1.66667C5.35632 0.75 6.10632 0 7.02298 0H8.68965C9.13168 0 9.5556 0.175595 9.86816 0.488155C10.1807 0.800716 10.3563 1.22464 10.3563 1.66667V2.15C10.93 2.38255 11.4685 2.69388 11.9563 3.075L12.373 2.83333C12.5627 2.72279 12.7724 2.65083 12.99 2.62158C13.2077 2.59234 13.4289 2.60638 13.6411 2.66291C13.8533 2.71944 14.0522 2.81734 14.2264 2.95099C14.4006 3.08463 14.5467 3.25138 14.6563 3.44167L15.4897 4.89167C15.7103 5.27411 15.7701 5.72847 15.6561 6.155C15.542 6.58153 15.2634 6.94537 14.8813 7.16667L14.4647 7.40833C14.55 8.02205 14.55 8.64462 14.4647 9.25833L14.8813 9.50833C15.2611 9.72959 15.5381 10.0919 15.6521 10.5164C15.766 10.941 15.7076 11.3933 15.4897 11.775L14.6563 13.225C14.435 13.6071 14.0712 13.8857 13.6446 13.9997C13.2181 14.1138 12.7638 14.0539 12.3813 13.8333L11.9647 13.5833C11.4753 13.971 10.9339 14.288 10.3563 14.525V15C10.3563 15.442 10.1807 15.866 9.86816 16.1785C9.5556 16.4911 9.13168 16.6667 8.68965 16.6667H7.02298C6.58096 16.6667 6.15703 16.4911 5.84447 16.1785C5.53191 15.866 5.35632 15.442 5.35632 15V14.5167C4.78263 14.2841 4.24412 13.9728 3.75632 13.5917L3.33965 13.8333C3.14992 13.9439 2.94023 14.0158 2.7226 14.0451C2.50498 14.0743 2.28372 14.0603 2.07154 14.0038C1.85936 13.9472 1.66045 13.8493 1.48622 13.7157C1.312 13.582 1.1659 13.4153 1.05632 13.225L0.222983 11.775C0.00236904 11.3926 -0.0574803 10.9382 0.0565734 10.5117C0.170627 10.0851 0.449263 9.72129 0.831317 9.5L1.24798 9.25833C1.16265 8.64462 1.16265 8.02205 1.24798 7.40833L0.831317 7.15833C0.451515 6.93708 0.174491 6.57475 0.0605561 6.15023C-0.0533789 5.7257 0.00499999 5.27336 0.222983 4.89167L1.05632 3.44167C1.27761 3.05961 1.64146 2.78098 2.06799 2.66692C2.49451 2.55287 2.94887 2.61272 3.33132 2.83333L3.74798 3.08333C4.23736 2.69569 4.77876 2.3787 5.35632 2.14167V2.15ZM4.42298 4.7L3.97298 5.125L2.49798 4.275L1.66465 5.725L3.13132 6.56667L2.98965 7.175C2.8089 7.93665 2.8089 8.73002 2.98965 9.49167L3.13132 10.1L1.66465 10.9417L2.49798 12.3917L3.97298 11.5417L4.42298 11.9667C4.98918 12.5067 5.67422 12.9063 6.42298 13.1333L7.02298 13.3V15H8.68965V13.3L9.28132 13.1333C10.0331 12.9075 10.7211 12.5078 11.2897 11.9667L11.7397 11.5417L13.2147 12.3917L14.048 10.9417L12.5813 10.1L12.723 9.49167C12.9037 8.73002 12.9037 7.93665 12.723 7.175L12.5813 6.56667L14.048 5.725L13.2147 4.275L11.7397 5.125L11.2897 4.7C10.7235 4.15998 10.0384 3.76038 9.28965 3.53333L8.68965 3.36667V1.66667H7.02298V3.36667L6.43132 3.53333C5.67958 3.75919 4.99157 4.15886 4.42298 4.7ZM7.85632 11.6667C6.97226 11.6667 6.12442 11.3155 5.49929 10.6904C4.87417 10.0652 4.52298 9.21739 4.52298 8.33333C4.52298 7.44928 4.87417 6.60143 5.49929 5.97631C6.12442 5.35119 6.97226 5 7.85632 5C8.74037 5 9.58822 5.35119 10.2133 5.97631C10.8385 6.60143 11.1897 7.44928 11.1897 8.33333C11.1897 9.21739 10.8385 10.0652 10.2133 10.6904C9.58822 11.3155 8.74037 11.6667 7.85632 11.6667ZM7.85632 10C8.29834 10 8.72227 9.82441 9.03483 9.51184C9.34739 9.19928 9.52298 8.77536 9.52298 8.33333C9.52298 7.89131 9.34739 7.46738 9.03483 7.15482C8.72227 6.84226 8.29834 6.66667 7.85632 6.66667C7.41429 6.66667 6.99037 6.84226 6.67781 7.15482C6.36525 7.46738 6.18965 7.89131 6.18965 8.33333C6.18965 8.77536 6.36525 9.19928 6.67781 9.51184C6.99037 9.82441 7.41429 10 7.85632 10Z" fill="white"/>
</svg>
